<mxfile host="app.diagrams.net" modified="2021-09-29T14:54:46.552Z" agent="5.0 (Windows NT 10.0; Win64; x64) AppleWebKit/537.36 (KHTML, like Gecko) Chrome/93.0.4577.82 Safari/537.36" etag="YIdCyaeQ0VKZKria_nLF" version="15.1.4" type="github">
  <diagram id="X-F0YKBpc1ZLF15CHt5P" name="Page-1">
    <mxGraphModel dx="1328" dy="746" grid="1" gridSize="10" guides="1" tooltips="1" connect="1" arrows="1" fold="1" page="1" pageScale="1" pageWidth="827" pageHeight="1169" math="0" shadow="0">
      <root>
        <mxCell id="0" />
        <mxCell id="1" parent="0" />
        <mxCell id="hiffgCaSeFgCTXsObyar-1" value="activity" style="rounded=1;whiteSpace=wrap;html=1;fillColor=#f8cecc;strokeColor=#b85450;" vertex="1" parent="1">
          <mxGeometry x="160" y="240" width="120" height="60" as="geometry" />
        </mxCell>
        <mxCell id="hiffgCaSeFgCTXsObyar-2" value="" style="edgeStyle=orthogonalEdgeStyle;rounded=0;orthogonalLoop=1;jettySize=auto;html=1;" edge="1" parent="1" source="hiffgCaSeFgCTXsObyar-3" target="hiffgCaSeFgCTXsObyar-1">
          <mxGeometry relative="1" as="geometry" />
        </mxCell>
        <mxCell id="hiffgCaSeFgCTXsObyar-3" value="handler" style="rounded=1;whiteSpace=wrap;html=1;fillColor=#dae8fc;strokeColor=#6c8ebf;" vertex="1" parent="1">
          <mxGeometry x="320" y="240" width="120" height="60" as="geometry" />
        </mxCell>
        <mxCell id="hiffgCaSeFgCTXsObyar-10" value="" style="edgeStyle=orthogonalEdgeStyle;rounded=0;orthogonalLoop=1;jettySize=auto;html=1;" edge="1" parent="1" source="hiffgCaSeFgCTXsObyar-5" target="hiffgCaSeFgCTXsObyar-7">
          <mxGeometry relative="1" as="geometry" />
        </mxCell>
        <mxCell id="hiffgCaSeFgCTXsObyar-5" value="mainlooper" style="rounded=1;whiteSpace=wrap;html=1;fillColor=#d5e8d4;strokeColor=#82b366;" vertex="1" parent="1">
          <mxGeometry x="800" y="240" width="120" height="60" as="geometry" />
        </mxCell>
        <mxCell id="hiffgCaSeFgCTXsObyar-8" value="" style="edgeStyle=orthogonalEdgeStyle;rounded=0;orthogonalLoop=1;jettySize=auto;html=1;" edge="1" parent="1" source="hiffgCaSeFgCTXsObyar-6" target="hiffgCaSeFgCTXsObyar-3">
          <mxGeometry relative="1" as="geometry" />
        </mxCell>
        <mxCell id="hiffgCaSeFgCTXsObyar-6" value="message" style="rounded=1;whiteSpace=wrap;html=1;fillColor=#dae8fc;strokeColor=#6c8ebf;" vertex="1" parent="1">
          <mxGeometry x="480" y="240" width="120" height="60" as="geometry" />
        </mxCell>
        <mxCell id="hiffgCaSeFgCTXsObyar-9" value="" style="edgeStyle=orthogonalEdgeStyle;rounded=0;orthogonalLoop=1;jettySize=auto;html=1;" edge="1" parent="1" source="hiffgCaSeFgCTXsObyar-7" target="hiffgCaSeFgCTXsObyar-6">
          <mxGeometry relative="1" as="geometry" />
        </mxCell>
        <mxCell id="hiffgCaSeFgCTXsObyar-7" value="messagequeue" style="rounded=1;whiteSpace=wrap;html=1;fillColor=#dae8fc;strokeColor=#6c8ebf;" vertex="1" parent="1">
          <mxGeometry x="640" y="240" width="120" height="60" as="geometry" />
        </mxCell>
      </root>
    </mxGraphModel>
  </diagram>
</mxfile>
